<?xml version="1.0" standalone="no"?>
<!DOCTYPE svg PUBLIC "-//W3C//DTD SVG 20010904//EN"
 "http://www.w3.org/TR/2001/REC-SVG-20010904/DTD/svg10.dtd">
<svg version="1.0" xmlns="http://www.w3.org/2000/svg"
 width="512.000000pt" height="512.000000pt" viewBox="0 0 512.000000 512.000000"
 preserveAspectRatio="xMidYMid meet">

<g transform="translate(0.000000,512.000000) scale(0.100000,-0.100000)"
fill="#000000" stroke="none">
<path d="M4160 3561 l0 -200 -175 -3 c-166 -3 -176 -4 -197 -26 l-23 -23 -3
-1137 c-2 -799 1 -1145 9 -1163 17 -43 47 -49 224 -49 l165 0 0 -200 0 -200
80 0 80 0 0 200 0 200 165 0 c177 0 207 6 224 49 8 18 11 364 9 1163 l-3 1137
-23 23 c-21 22 -31 23 -197 26 l-175 3 0 200 0 199 -80 0 -80 0 0 -199z"/>
<path d="M1920 3401 l0 -200 -175 -3 c-166 -3 -176 -4 -197 -26 l-23 -23 -3
-1137 c-2 -799 1 -1145 9 -1163 17 -43 47 -49 224 -49 l165 0 0 -200 0 -200
80 0 80 0 0 200 0 200 165 0 c177 0 207 6 224 49 8 18 11 364 9 1163 l-3 1137
-23 23 c-21 22 -31 23 -197 26 l-175 3 0 200 0 199 -80 0 -80 0 0 -199z"/>
<path d="M2659 1881 c18 -32 67 -41 227 -41 l154 0 0 -200 0 -200 80 0 80 0 0
200 0 200 154 0 c160 0 209 9 227 41 9 19 -2 19 -461 19 -459 0 -470 0 -461
-19z"/>
<path d="M419 1401 c18 -32 67 -41 227 -41 l154 0 0 -200 0 -200 80 0 80 0 0
200 0 200 154 0 c160 0 209 9 227 41 9 19 -2 19 -461 19 -459 0 -470 0 -461
-19z"/>
</g>
</svg>
